<svg width="28" height="28" viewBox="0 0 28 28" fill="none" xmlns="http://www.w3.org/2000/svg">
<path d="M12.6957 23.7812L5.97012 19.75C5.6848 19.5833 5.46571 19.3542 5.31285 19.0625C5.16 18.7708 5.08357 18.4583 5.08357 18.125V10.0938C5.08357 9.76042 5.16 9.44792 5.31285 9.15625C5.46571 8.86458 5.6848 8.63542 5.97012 8.46875L12.7262 4.375C13.0116 4.20833 13.3275 4.125 13.6739 4.125C14.0204 4.125 14.3363 4.20833 14.6216 4.375L21.3777 8.46875C21.6631 8.63542 21.8821 8.86458 22.035 9.15625C22.1879 9.44792 22.2643 9.76042 22.2643 10.0938V18.125C22.2643 18.4583 22.1828 18.7708 22.0197 19.0625C21.8567 19.3542 21.6325 19.5833 21.3472 19.75L14.5299 23.7812C14.2446 23.9479 13.9389 24.0312 13.6128 24.0312C13.2867 24.0312 12.981 23.9479 12.6957 23.7812ZM0.222839 6.15625V3.75C0.222839 2.79167 0.559117 1.96875 1.23167 1.28125C1.90423 0.59375 2.70925 0.25 3.64675 0.25H6.00069V2.125H3.64675C3.19838 2.125 2.82134 2.28125 2.51564 2.59375C2.20993 2.90625 2.05708 3.29167 2.05708 3.75V6.15625H0.222839ZM3.64675 27.75C2.70925 27.75 1.90423 27.4062 1.23167 26.7188C0.559117 26.0312 0.222839 25.2083 0.222839 24.25V21.8438H2.05708V24.25C2.05708 24.7083 2.20993 25.0938 2.51564 25.4062C2.82134 25.7188 3.19838 25.875 3.64675 25.875H6.00069V27.75H3.64675ZM21.3472 27.625V25.75H23.7011C24.1495 25.75 24.5265 25.5938 24.8322 25.2812C25.1379 24.9688 25.2908 24.5833 25.2908 24.125V21.7188H27.125V24.125C27.125 25.0833 26.7887 25.9062 26.1162 26.5938C25.4436 27.2813 24.6386 27.625 23.7011 27.625H21.3472ZM25.2908 6.15625V3.75C25.2908 3.29167 25.1379 2.90625 24.8322 2.59375C24.5265 2.28125 24.1495 2.125 23.7011 2.125H21.3472V0.25H23.7011C24.6386 0.25 25.4436 0.59375 26.1162 1.28125C26.7887 1.96875 27.125 2.79167 27.125 3.75V6.15625H25.2908ZM7.8655 9.5L6.94838 10.0625V11.2188L12.7568 14.625V21.625L13.6739 22.1875L14.591 21.625V14.625L20.43 11.2188V10.0625L19.4824 9.5L13.6739 12.9375L7.8655 9.5Z" fill="#ACB3C5"/>
</svg>
